<?xml version="1.0" standalone="no"?>
<!DOCTYPE svg PUBLIC "-//W3C//DTD SVG 20010904//EN"
 "http://www.w3.org/TR/2001/REC-SVG-20010904/DTD/svg10.dtd">
<svg version="1.0" xmlns="http://www.w3.org/2000/svg"
 width="507.000000pt" height="173.000000pt" viewBox="0 0 507.000000 173.000000"
 preserveAspectRatio="xMidYMid meet">

<g transform="translate(0.000000,173.000000) scale(0.100000,-0.100000)"
fill="#000000" stroke="none">
<path d="M72 1700 c-66 -41 -90 -124 -56 -196 22 -47 67 -76 124 -82 157 -15
226 192 93 279 -38 26 -118 25 -161 -1z"/>
<path d="M1532 1684 c-76 -92 -32 -218 85 -245 139 -31 240 147 144 250 -28
30 -32 31 -114 31 l-86 0 -29 -36z"/>
<path d="M1972 863 c2 -634 6 -807 16 -811 9 -3 12 163 12 807 0 716 -2 811
-15 811 -13 0 -15 -94 -13 -807z"/>
<path d="M345 1459 c-31 -29 -63 -65 -70 -80 -43 -82 4 -214 162 -461 16 -26
16 -27 -35 -105 -83 -127 -115 -200 -120 -271 -4 -50 -1 -67 13 -82 23 -25 72
-34 116 -22 19 6 26 11 17 11 -30 2 -21 50 28 148 34 68 51 93 65 93 10 0 78
-9 150 -21 72 -11 133 -18 136 -15 5 5 -24 278 -33 305 -3 10 -13 4 -34 -20
l-29 -34 -38 44 c-76 88 -155 207 -206 309 -48 98 -52 110 -52 178 0 41 -3 74
-7 74 -3 0 -32 -23 -63 -51z"/>
<path d="M511 1501 c-13 -4 -33 -18 -44 -33 -16 -21 -18 -35 -12 -73 6 -43 8
-46 22 -32 14 13 20 13 55 1 78 -27 195 -95 282 -164 101 -79 77 -80 189 8 75
59 208 137 275 162 51 19 57 20 68 5 11 -14 12 -14 18 1 3 8 6 33 6 53 0 68
-52 92 -149 67 -69 -18 -160 -61 -241 -116 -30 -20 -60 -39 -66 -43 -5 -3 -39
15 -75 39 -132 93 -262 142 -328 125z"/>
<path d="M1425 1480 c12 -19 -17 -124 -53 -195 -43 -87 -98 -169 -176 -264
-34 -40 -69 -83 -78 -95 l-17 -21 -40 39 c-22 22 -42 38 -44 35 -2 -2 -12 -69
-21 -149 -10 -80 -20 -153 -22 -162 -5 -16 3 -18 63 -18 73 0 233 16 241 24 3
3 -7 21 -22 41 -15 20 -26 41 -23 48 5 15 107 -140 147 -224 32 -68 37 -98 19
-116 -9 -9 -2 -13 25 -18 43 -9 82 12 97 53 23 60 -37 223 -134 364 l-47 68
45 64 c81 116 155 285 155 355 0 26 -97 180 -113 181 -5 0 -5 -5 -2 -10z"/>
<path d="M3824 1457 c-3 -8 -4 -34 -2 -58 l3 -44 55 0 55 0 0 55 0 55 -53 3
c-38 2 -54 -1 -58 -11z"/>
<path d="M4007 1463 c-4 -3 -7 -30 -7 -60 l0 -53 55 0 55 0 0 60 0 60 -48 0
c-27 0 -52 -3 -55 -7z"/>
<path d="M4510 1380 c0 -33 -2 -60 -4 -60 -2 0 -20 7 -39 15 -146 61 -319 -55
-319 -214 -1 -100 46 -174 137 -217 95 -45 196 -24 268 56 24 26 49 66 55 88
7 24 12 108 12 216 l0 176 -55 0 -55 0 0 -60z m-54 -165 c61 -40 67 -135 13
-186 -57 -53 -133 -48 -184 13 -48 57 -22 158 49 189 29 12 92 4 122 -16z"/>
<path d="M3338 1310 c-19 -33 -38 -57 -41 -53 -4 3 -7 28 -7 55 l0 48 -150 0
-150 0 -20 -40 c-20 -39 -20 -40 -1 -40 18 0 19 -5 15 -52 -9 -92 40 -153 131
-166 54 -8 77 -31 56 -56 -10 -12 -33 -16 -102 -16 l-89 0 0 -55 0 -55 103 0
c84 0 108 4 135 20 52 32 74 76 69 138 -3 45 -9 59 -39 89 -28 28 -46 36 -88
41 -59 8 -83 29 -64 60 9 13 28 18 90 20 106 4 148 -4 138 -26 -13 -31 -16
-150 -5 -185 31 -92 139 -163 238 -155 44 4 51 2 41 -9 -17 -21 -78 -50 -121
-58 l-37 -7 0 -55 0 -56 45 5 c105 12 216 95 264 197 25 54 26 64 29 259 l3
202 -55 0 -56 0 0 -133 c0 -153 -12 -188 -74 -220 -49 -26 -99 -16 -143 28
-29 29 -33 39 -33 85 0 46 4 56 34 86 24 24 43 34 65 34 l32 0 -3 63 -3 62
-87 3 -86 3 -34 -61z"/>
<path d="M2579 1333 c-56 -28 -56 -28 -82 -9 -33 24 -113 32 -163 16 -28 -10
-39 -10 -42 -1 -2 7 -29 11 -68 11 -62 0 -65 -1 -84 -32 l-20 -33 28 -5 27 -5
3 -198 2 -197 55 0 55 0 0 145 0 145 29 32 c26 29 35 33 83 33 29 0 58 4 65 8
8 5 7 -5 -3 -30 -25 -60 -16 -169 19 -222 67 -101 185 -134 310 -86 12 5 17 2
17 -9 0 -13 11 -16 56 -16 l55 0 -3 158 c-3 157 -3 159 -33 208 -42 68 -108
107 -189 112 -52 3 -69 -1 -117 -25z m156 -97 c102 -43 95 -195 -10 -235 -32
-13 -43 -13 -78 0 -103 35 -117 173 -24 229 38 24 66 25 112 6z"/>
<path d="M4632 1192 c3 -149 5 -160 30 -203 51 -87 101 -108 262 -108 l126 0
0 235 0 234 -55 0 -55 0 0 -130 c0 -150 -11 -190 -60 -215 -39 -20 -72 -13
-106 20 -23 23 -24 29 -24 175 l0 150 -61 0 -61 0 4 -158z"/>
<path d="M3827 1314 c-4 -4 -7 -103 -7 -221 l0 -213 60 0 60 0 -2 218 -3 217
-50 3 c-28 2 -54 0 -58 -4z"/>
<path d="M4007 1313 c-4 -3 -7 -102 -7 -220 l0 -213 55 0 55 0 0 220 0 220
-48 0 c-27 0 -52 -3 -55 -7z"/>
<path d="M686 1146 c-49 -45 -66 -67 -61 -77 5 -8 27 -38 49 -67 l39 -53 84
83 c46 45 82 86 81 89 -4 11 -106 89 -115 89 -4 -1 -39 -29 -77 -64z"/>
<path d="M975 1163 l-56 -47 85 -85 85 -85 38 44 c73 84 73 73 -4 150 -37 39
-73 70 -79 70 -7 0 -37 -21 -69 -47z"/>
<path d="M875 680 c-3 -5 -60 -50 -126 -100 -184 -138 -316 -197 -425 -188
-30 3 -54 1 -54 -3 0 -14 103 -120 131 -134 33 -18 98 -19 154 -4 58 16 181
79 269 138 42 29 80 51 84 49 4 -2 39 -24 78 -50 129 -85 275 -148 344 -148
16 0 57 21 101 51 91 63 102 74 70 66 -34 -8 -125 10 -189 39 -69 30 -145 82
-294 201 -118 93 -132 101 -143 83z"/>
<path d="M3040 480 c0 -60 4 -100 10 -100 6 0 10 40 10 100 0 60 -4 100 -10
100 -6 0 -10 -40 -10 -100z"/>
<path d="M3920 481 c0 -61 4 -101 10 -101 6 0 10 38 10 94 0 53 -4 98 -10 101
-6 4 -10 -30 -10 -94z"/>
<path d="M2130 561 c0 -5 10 -11 23 -13 20 -3 22 -9 25 -65 4 -83 22 -81 22 2
0 63 1 65 25 65 14 0 25 5 25 10 0 6 -27 10 -60 10 -33 0 -60 -4 -60 -9z"/>
<path d="M2440 497 l0 -73 38 -1 c47 -2 62 11 62 52 0 38 -21 60 -50 52 -16
-4 -20 0 -20 19 0 15 -6 24 -15 24 -12 0 -15 -15 -15 -73z m74 -3 c8 -20 -12
-56 -27 -51 -7 2 -13 18 -15 35 -3 26 0 32 16 32 11 0 23 -7 26 -16z"/>
<path d="M3140 561 c0 -5 10 -11 23 -13 20 -3 22 -9 25 -65 4 -83 22 -81 22 2
0 63 1 65 25 65 14 0 25 5 25 10 0 6 -27 10 -60 10 -33 0 -60 -4 -60 -9z"/>
<path d="M3450 497 l0 -73 38 -1 c47 -2 62 11 62 52 0 38 -21 60 -50 52 -16
-4 -20 0 -20 19 0 15 -6 24 -15 24 -12 0 -15 -15 -15 -73z m75 -8 c8 -24 -16
-55 -34 -45 -6 4 -11 20 -11 37 0 22 5 29 19 29 11 0 23 -9 26 -21z"/>
<path d="M3690 560 c0 -5 5 -10 10 -10 6 0 10 5 10 10 0 6 -4 10 -10 10 -5 0
-10 -4 -10 -10z"/>
<path d="M3740 495 c0 -60 3 -75 15 -75 8 0 15 9 15 19 0 30 16 33 28 6 7 -14
19 -25 28 -25 14 0 13 5 -5 36 -21 34 -21 38 -5 55 22 25 -1 26 -28 2 -17 -15
-18 -14 -18 20 0 26 -4 37 -15 37 -12 0 -15 -15 -15 -75z"/>
<path d="M4020 560 c0 -5 9 -10 20 -10 18 0 20 -7 20 -65 0 -51 3 -65 15 -65
12 0 15 14 15 65 0 58 2 65 20 65 11 0 20 5 20 10 0 6 -25 10 -55 10 -30 0
-55 -4 -55 -10z"/>
<path d="M2250 511 c-14 -28 -12 -57 6 -75 20 -20 58 -21 74 -1 11 13 8 15
-20 13 -19 -2 -35 2 -37 10 -3 8 7 12 31 12 38 0 43 8 26 41 -7 12 -21 19 -40
19 -19 0 -33 -7 -40 -19z m60 -16 c0 -8 -9 -15 -20 -15 -20 0 -26 11 -13 23
12 13 33 7 33 -8z"/>
<path d="M2360 475 c0 -42 3 -55 15 -55 11 0 15 11 15 39 0 29 6 43 23 54 22
16 21 16 -15 16 l-38 1 0 -55z"/>
<path d="M2572 518 c-7 -7 -12 -26 -12 -43 0 -17 5 -36 12 -43 17 -17 53 -15
69 4 12 15 10 16 -19 10 -25 -6 -32 -4 -32 8 0 11 9 16 30 16 22 0 30 5 30 18
0 24 -19 42 -45 42 -12 0 -26 -5 -33 -12z m51 -23 c1 -5 -6 -11 -15 -13 -11
-2 -18 3 -18 13 0 17 30 18 33 0z"/>
<path d="M2676 513 c-8 -19 24 -53 50 -53 8 0 14 -5 14 -11 0 -8 -12 -9 -37
-4 -33 6 -35 5 -24 -9 19 -23 68 -20 81 3 11 21 -9 51 -35 51 -8 0 -17 5 -21
11 -4 8 3 9 26 4 25 -5 31 -4 28 6 -3 8 -21 15 -40 17 -27 2 -37 -1 -42 -15z"/>
<path d="M2797 523 c-15 -15 -5 -22 23 -16 19 3 30 1 30 -6 0 -6 -6 -11 -14
-11 -8 0 -24 -8 -37 -19 -32 -26 -12 -50 42 -49 37 0 39 2 39 32 0 60 -10 76
-44 76 -18 0 -36 -3 -39 -7z m53 -63 c0 -12 -28 -25 -36 -17 -9 9 6 27 22 27
8 0 14 -5 14 -10z"/>
<path d="M2900 474 c0 -41 4 -54 15 -54 11 0 15 11 15 39 0 29 6 42 23 54 22
14 21 15 -15 15 l-38 0 0 -54z"/>
<path d="M3260 511 c-14 -28 -12 -57 6 -75 20 -20 58 -21 74 -1 11 13 8 15
-20 13 -19 -2 -35 2 -37 10 -3 8 7 12 31 12 38 0 43 8 26 41 -7 12 -21 19 -40
19 -19 0 -33 -7 -40 -19z m60 -16 c0 -8 -9 -15 -20 -15 -20 0 -26 11 -13 23
12 13 33 7 33 -8z"/>
<path d="M3370 475 c0 -42 3 -55 15 -55 11 0 15 11 15 39 0 29 6 43 23 54 22
16 21 16 -15 16 l-38 1 0 -55z"/>
<path d="M3576 515 c-5 -14 -1 -16 24 -10 40 9 39 -10 -1 -24 -24 -8 -30 -15
-27 -33 3 -20 9 -23 46 -24 l43 -1 -3 51 c-3 51 -3 51 -39 54 -26 2 -38 -1
-43 -13z m54 -60 c0 -8 -6 -15 -14 -15 -17 0 -28 14 -19 24 12 12 33 6 33 -9z"/>
<path d="M3690 475 c0 -30 5 -55 10 -55 6 0 10 25 10 55 0 30 -4 55 -10 55 -5
0 -10 -25 -10 -55z"/>
<path d="M4142 518 c-7 -7 -12 -26 -12 -43 0 -17 5 -36 12 -43 17 -17 53 -15
69 4 12 15 10 16 -19 10 -25 -6 -32 -4 -32 8 0 11 9 16 30 16 22 0 30 5 30 18
0 24 -19 42 -45 42 -12 0 -26 -5 -33 -12z m51 -23 c1 -5 -6 -11 -15 -13 -11
-2 -18 3 -18 13 0 17 30 18 33 0z"/>
<path d="M4250 473 c0 -29 5 -53 10 -53 6 0 10 13 10 29 0 39 9 61 26 61 8 0
14 4 14 9 0 5 -13 9 -30 9 -29 -1 -30 -2 -30 -55z"/>
<path d="M4330 454 c0 -43 4 -74 10 -74 6 0 10 10 10 23 0 20 4 23 30 19 24
-3 32 0 42 22 8 19 9 35 2 54 -8 23 -15 27 -52 28 l-42 2 0 -74z m65 21 c0
-39 -31 -48 -41 -11 -7 30 2 48 24 44 11 -2 17 -13 17 -33z"/>
<path d="M4450 511 c-14 -28 -12 -57 6 -75 20 -20 58 -21 74 -1 11 13 8 15
-20 13 -19 -2 -35 2 -37 10 -3 8 7 12 31 12 38 0 43 8 26 41 -7 12 -21 19 -40
19 -19 0 -33 -7 -40 -19z m60 -16 c0 -8 -9 -15 -20 -15 -20 0 -26 11 -13 23
12 13 33 7 33 -8z"/>
<path d="M4560 475 c0 -42 3 -55 15 -55 11 0 15 11 15 39 0 29 6 43 23 54 22
16 21 16 -15 16 l-38 1 0 -55z"/>
<path d="M4652 518 c-15 -15 -16 -70 0 -86 17 -17 53 -15 68 3 18 21 6 29 -19
13 -18 -11 -23 -11 -31 2 -6 8 -9 24 -8 35 3 16 9 19 36 17 24 -2 33 2 30 10
-6 18 -60 22 -76 6z"/>
<path d="M4756 515 c-5 -14 -1 -16 24 -10 40 9 39 -10 -1 -24 -24 -8 -30 -15
-27 -33 3 -20 9 -23 46 -24 l43 -1 -3 51 c-3 51 -3 51 -39 54 -26 2 -38 -1
-43 -13z m54 -60 c0 -8 -6 -15 -14 -15 -17 0 -28 14 -19 24 12 12 33 6 33 -9z"/>
<path d="M4860 521 c0 -7 7 -28 15 -48 8 -19 15 -44 15 -54 0 -11 -7 -19 -15
-19 -8 0 -15 -4 -15 -10 0 -5 11 -10 24 -10 20 0 27 10 46 63 13 34 25 68 27
75 3 6 -2 12 -11 12 -9 0 -16 -4 -16 -9 0 -5 -5 -22 -11 -38 l-11 -28 -12 34
c-12 34 -36 55 -36 32z"/>
<path d="M4987 523 c-15 -15 -5 -22 23 -16 39 7 40 -13 1 -22 -61 -13 -46 -64
19 -63 l38 0 -5 42 c-3 22 -6 47 -9 54 -4 13 -56 17 -67 5z m53 -63 c0 -12
-28 -25 -36 -17 -9 9 6 27 22 27 8 0 14 -5 14 -10z"/>
<path d="M1582 313 c-121 -59 -113 -230 13 -278 55 -21 103 -14 145 22 88 74
77 204 -23 252 -52 25 -90 26 -135 4z"/>
<path d="M103 280 c-65 -39 -87 -110 -59 -185 20 -51 55 -80 107 -88 89 -14
170 39 184 121 9 55 -21 124 -67 152 -44 26 -122 27 -165 0z"/>
</g>
</svg>
